HIERARCHY
ROOT root
{
	OFFSET 0.000000 0.000000 0.000000
	CHANNELS 6 Xposition Yposition Zposition Zrotation Yrotation Xrotation
	JOINT lhip
	{
		OFFSET 0.058581 -0.082280 -0.017664
		CHANNELS 3 Zrotation Yrotation Xrotation
		JOINT lknee
		{
			OFFSET 0.043451 -0.386469 0.008037
			CHANNELS 3 Zrotation Yrotation Xrotation
			JOINT lankle
			{
				OFFSET -0.014790 -0.426874 -0.037428
				CHANNELS 3 Zrotation Yrotation Xrotation
				JOINT ltoe
				{
					OFFSET 0.041054 -0.060286 0.122042
					CHANNELS 3 Zrotation Yrotation Xrotation
					End Site
					{
						OFFSET 0.000000 0.000000 0.000000
					}
				}
			}
		}
	}
	JOINT rhip
	{
		OFFSET -0.060310 -0.090513 -0.013543
		CHANNELS 3 Zrotation Yrotation Xrotation
		JOINT rknee
		{
			OFFSET -0.043257 -0.383688 -0.004843
			CHANNELS 3 Zrotation Yrotation Xrotation
			JOINT rankle
			{
				OFFSET 0.019056 -0.420046 -0.034562
				CHANNELS 3 Zrotation Yrotation Xrotation
				JOINT rtoe
				{
					OFFSET -0.034840 -0.062106 0.130323
					CHANNELS 3 Zrotation Yrotation Xrotation
					End Site
					{
						OFFSET 0.000000 0.000000 0.000000
					}
				}
			}
		}
	}
	JOINT lowerback
	{
		OFFSET 0.004439 0.124404 -0.038385
		CHANNELS 3 Zrotation Yrotation Xrotation
		JOINT upperback
		{
			OFFSET 0.004488 0.137956 0.026820
			CHANNELS 3 Zrotation Yrotation Xrotation
			JOINT chest
			{
				OFFSET -0.002265 0.056032 0.002855
				CHANNELS 3 Zrotation Yrotation Xrotation
				JOINT lowerneck
				{
					OFFSET -0.013390 0.211636 -0.033468
					CHANNELS 3 Zrotation Yrotation Xrotation
					JOINT upperneck
					{
						OFFSET 0.010113 0.088937 0.050410
						CHANNELS 3 Zrotation Yrotation Xrotation
						End Site
						{
							OFFSET 0.000000 0.000000 0.000000
						}
					}
				}
				JOINT lclavicle
				{
					OFFSET 0.071702 0.114000 -0.018898
					CHANNELS 3 Zrotation Yrotation Xrotation
					JOINT lshoulder
					{
						OFFSET 0.122921 0.045205 -0.019046
						CHANNELS 3 Zrotation Yrotation Xrotation
						JOINT lelbow
						{
							OFFSET 0.255332 -0.015649 -0.022946
							CHANNELS 3 Zrotation Yrotation Xrotation
							JOINT lwrist
							{
								OFFSET 0.265709 0.012698 -0.007375
								CHANNELS 3 Zrotation Yrotation Xrotation
								End Site
								{
									OFFSET 0.000000 0.000000 0.000000
								}
							}
						}
					}
				}
				JOINT rclavicle
				{
					OFFSET -0.082954 0.112472 -0.023707
					CHANNELS 3 Zrotation Yrotation Xrotation
					JOINT rshoulder
					{
						OFFSET -0.113228 0.046853 -0.008472
						CHANNELS 3 Zrotation Yrotation Xrotation
						JOINT relbow
						{
							OFFSET -0.260127 -0.014369 -0.031269
							CHANNELS 3 Zrotation Yrotation Xrotation
							JOINT rwrist
							{
								OFFSET -0.269108 0.006794 -0.006027
								CHANNELS 3 Zrotation Yrotation Xrotation
								End Site
								{
									OFFSET 0.000000 0.000000 0.000000
								}
							}
						}
					}
				}
			}
		}
	}
}
MOTION
Frames: 16
Frame Time: 0.033333
0.039982 -0.989863 0.994222 177.485038 1.838415 91.825882 4.572553 10.521282 3.800014 -1.819393 5.023925 -4.540254 -1.968134 4.806909 -9.823059 0.000000 -0.000000 0.000000 0.120334 -6.102118 5.036791 4.133383 -3.752635 -6.905890 13.333680 14.995765 -15.885317 0.000000 -0.000000 0.000000 -1.494815 0.949934 -9.122461 1.340525 -2.432278 14.807034 0.254231 -0.248428 -5.911874 1.421367 -6.229162 -1.306185 0.927890 -11.315884 -0.260280 -32.703574 -1.257915 7.780045 -56.911653 -5.113315 9.711291 13.731212 -25.615634 -4.325824 -2.254041 -10.352917 -8.169783 30.157026 7.106716 9.168667 49.764457 12.523235 1.688907 -6.745937 8.063879 -17.495024 -1.786566 13.352049 -19.975484 
0.038868 -0.992100 0.993535 178.145943 1.899652 91.982481 4.474781 9.862104 3.167781 -1.628605 4.978016 -4.117806 -1.863840 4.808264 -9.878464 0.000000 -0.000000 0.000000 0.099595 -6.502292 4.549920 4.110728 -5.105702 -6.501989 14.430060 13.705052 -14.924642 0.000000 -0.000000 0.000000 -0.935525 0.640300 -8.159025 0.851721 -2.588816 12.861544 0.186493 -0.359801 -4.789616 1.276116 -6.431687 -2.319185 0.964821 -11.451455 0.752017 -32.091787 -1.313514 7.386276 -57.470804 -5.202750 9.233782 13.371227 -25.597035 -3.549371 -2.290103 -10.422641 -8.299259 29.894445 7.437039 8.625430 50.089534 12.314048 1.378691 -6.596532 7.948390 -17.661059 -1.563722 13.736912 -19.426455 
0.037955 -0.994485 0.993027 178.622356 1.811665 92.295486 4.136010 8.970026 2.417603 -1.414930 5.283954 -3.770325 -1.712707 4.956690 -9.710172 0.000000 -0.000000 0.000000 -0.006381 -6.391950 3.865461 4.017090 -6.397923 -6.259912 15.187535 11.799816 -14.105982 0.000000 -0.000000 0.000000 -0.817230 0.397798 -7.544220 0.758612 -2.650153 11.591254 0.142421 -0.461836 -4.416882 1.254199 -6.674927 -2.637062 0.917160 -11.221828 1.162502 -31.874139 -0.913544 7.376123 -57.669459 -5.762097 9.280295 12.984976 -25.377003 -3.134586 -1.818519 -10.345841 -8.163502 29.592488 7.285448 8.365441 50.488819 12.408945 1.933015 -6.657439 7.756568 -18.143492 -1.888701 13.915203 -19.144054 
0.036907 -0.996880 0.992405 179.079180 1.654400 92.769740 3.701509 7.711556 1.561035 -1.212686 5.939560 -3.534055 -1.463715 5.058796 -9.657661 0.000000 -0.000000 0.000000 -0.241545 -6.359643 2.772619 3.787373 -9.183113 -5.847387 16.251161 8.373812 -11.782615 0.000000 -0.000000 0.000000 -0.714466 0.137212 -7.189128 0.676368 -2.653538 10.390080 0.089611 -0.634847 -4.099845 1.498332 -7.128381 -2.931090 0.455331 -10.387636 1.779725 -31.844589 -0.669303 7.704327 -57.925653 -6.522390 9.349516 13.067488 -24.705808 -3.524409 -1.463200 -10.508759 -7.565684 29.172814 7.107547 8.271706 51.096379 12.665161 2.670364 -6.938758 7.448496 -19.093703 -1.839961 14.038476 -18.554284 
0.036860 -0.996934 0.992408 179.072112 1.602702 92.782442 3.620606 7.579528 1.570336 -1.201415 6.006003 -3.598217 -1.293004 4.959681 -9.679593 0.000000 -0.000000 0.000000 -0.324864 -6.439378 2.644628 3.724057 -9.800758 -5.737002 16.570004 7.473282 -11.206384 0.000000 -0.000000 0.000000 -0.770482 0.103006 -7.124295 0.689725 -2.582684 10.161331 0.096062 -0.661093 -4.021208 1.519006 -7.257146 -2.917135 0.369894 -10.267421 1.870205 -31.815888 -0.545582 7.823623 -57.949669 -6.679081 9.412342 13.020753 -24.649988 -3.541012 -1.354228 -10.492981 -7.509374 29.136869 7.044148 8.282991 51.170669 12.670471 2.888167 -6.963574 7.396289 -19.389609 -1.840214 14.106548 -18.361411 
0.036622 -0.997274 0.992285 179.132374 1.426346 92.870630 3.375625 7.219836 1.503270 -1.189571 6.071759 -3.693326 -1.181610 5.159911 -9.660477 0.000000 -0.000000 0.000000 -0.557123 -6.322752 2.377828 3.654933 -10.783304 -5.599851 17.443879 5.594951 -10.739125 0.000000 -0.000000 0.000000 -1.119170 0.058966 -7.162649 0.938388 -2.616776 9.867957 -0.007135 -0.583701 -3.773712 1.892261 -6.828026 -3.031684 0.050128 -10.521160 1.996963 -31.319109 -0.671454 7.888906 -58.437335 -8.285986 10.810767 11.662169 -21.176316 -0.861442 3.456813 -12.763715 -10.768325 28.946415 6.626975 7.970911 51.853964 12.674905 4.579161 -7.117286 7.511723 -18.316580 -4.722882 14.321549 -21.114692 
0.036370 -0.997648 0.992394 179.191873 1.371424 92.987990 3.282371 6.901663 1.381210 -1.209633 6.258628 -3.736851 -1.038803 5.244477 -9.660230 0.000000 -0.000000 0.000000 -0.635815 -6.352958 2.045936 3.550811 -11.912339 -5.409414 18.260876 3.999124 -10.068528 0.000000 -0.000000 0.000000 -1.203567 0.032048 -7.412007 0.993571 -2.573683 10.042664 -0.067977 -0.648972 -3.832501 2.042909 -6.874928 -2.940605 -0.082030 -10.305019 2.039275 -31.315909 -0.447564 8.101369 -58.295583 -8.627879 10.898582 11.420850 -21.176234 -0.649652 3.571373 -12.770956 -10.899748 28.911017 6.525945 7.940799 52.096603 12.804691 4.986607 -7.331584 7.494305 -18.650855 -4.615919 14.253659 -21.002216 
0.036122 -0.998045 0.992593 179.231890 1.260023 92.990512 3.156104 6.444094 1.480331 -1.311968 6.531166 -3.914125 -0.963909 5.524763 -9.580611 0.000000 -0.000000 0.000000 -0.790731 -6.309394 1.860098 3.434159 -13.028585 -5.270233 19.272299 2.341892 -9.316802 0.000000 -0.000000 0.000000 -1.374908 0.000867 -7.383491 1.029073 -2.552700 10.024931 -0.105442 -0.634521 -3.812544 2.255876 -6.641237 -3.052865 -0.163436 -10.049452 2.172861 -31.197966 -0.352080 8.238847 -58.389763 -9.018176 11.110475 11.360271 -20.837416 -0.638976 3.840846 -12.974981 -10.875946 28.876086 6.406646 7.817963 52.338608 12.862704 5.400095 -7.538730 7.452445 -19.066747 -4.385458 14.269798 -20.774621 
0.035896 -0.998201 0.992727 179.277598 1.187784 93.068847 3.031368 6.018659 1.476612 -1.360942 6.752098 -3.956065 -1.019265 6.056465 -9.441346 0.000000 -0.000000 0.000000 -0.905285 -6.228110 1.647349 3.359512 -14.087820 -5.201882 20.186247 0.715984 -9.067275 0.000000 -0.000000 0.000000 -1.485779 0.002759 -7.561663 1.126077 -2.549956 10.005008 -0.175258 -0.665607 -3.704880 2.403415 -6.383413 -3.025976 -0.418321 -9.845146 2.175246 -31.138347 -0.257832 8.490024 -58.409135 -9.417035 11.288377 11.237658 -20.602584 -0.504790 3.872826 -13.195231 -10.978889 28.794832 6.289282 7.735592 52.598994 12.924508 5.874046 -7.731126 7.418906 -19.245151 -4.259828 14.242198 -20.798768 
0.035640 -0.998114 0.992752 179.287493 1.059603 93.008642 2.862789 5.863967 1.635536 -1.343163 6.798054 -4.157914 -0.664163 5.650008 -9.740530 0.000000 -0.000000 0.000000 -1.141976 -6.404071 1.569149 3.291028 -15.318242 -5.094954 21.513164 -0.843675 -8.352519 0.000000 -0.000000 0.000000 -1.656860 0.024748 -7.551445 1.155365 -2.480104 9.842127 -0.201655 -0.730179 -3.564283 2.628026 -6.006533 -2.926836 -0.667146 -9.446030 2.299678 -31.070091 -0.243858 8.926997 -58.389519 -9.843911 11.468813 11.071183 -20.332887 -0.133033 4.237874 -13.624058 -10.981939 28.696675 6.208985 7.746512 52.863034 13.005815 6.268416 -7.834365 7.316512 -19.632840 -4.340025 14.348779 -20.746102 
0.035509 -0.998442 0.992937 179.341872 0.957936 93.105153 2.731811 5.514542 1.580471 -1.366710 7.003329 -4.243238 -0.648540 5.719729 -9.816213 0.000000 -0.000000 0.000000 -1.284191 -6.301081 1.348838 3.159709 -16.253348 -4.852310 23.130625 -2.208057 -8.503375 0.000000 -0.000000 0.000000 -1.837285 0.084355 -7.715669 1.217264 -2.473221 9.990657 -0.230885 -0.809805 -3.667638 2.756257 -5.566115 -2.891889 -0.804948 -8.820331 2.384256 -31.056801 -0.246037 9.140676 -58.297312 -10.085789 11.744441 10.697268 -20.265954 0.139985 4.943843 -13.421757 -10.053920 28.772923 6.159402 7.596960 52.899602 12.920041 6.633328 -7.896672 7.222095 -20.311137 -4.121253 14.400128 -20.343555 
0.035229 -0.998267 0.993008 179.309090 0.851172 92.905084 2.579804 5.476486 1.892477 -1.306179 6.967355 -4.363842 -0.736035 5.743087 -9.848113 0.000000 -0.000000 0.000000 -1.514573 -6.400766 1.568107 3.212754 -16.494188 -4.857807 24.404500 -2.170564 -8.187314 0.000000 -0.000000 0.000000 -1.936042 0.185075 -7.472704 1.211356 -2.490821 9.918436 -0.198507 -0.821336 -3.658544 2.869075 -5.220275 -3.178146 -1.091783 -8.433901 2.652576 -30.964612 -0.396458 9.133090 -58.313561 -10.127337 11.803761 10.315365 -20.039334 0.316551 4.739777 -13.441418 -9.271749 28.608058 6.180964 7.373549 53.075099 12.776313 6.778832 -7.948669 7.150618 -20.689620 -3.776665 14.444160 -19.888128 
0.035091 -0.998285 0.993008 179.334620 0.754165 92.999403 2.443759 5.362239 1.774032 -1.283811 7.005942 -4.331895 -0.814550 5.812263 -9.888008 0.000000 -0.000000 0.000000 -1.636120 -6.387057 1.416779 3.181275 -16.862701 -4.795837 25.476933 -2.075313 -7.943311 0.000000 -0.000000 0.000000 -2.092305 0.227535 -7.612884 1.283147 -2.544432 9.746257 -0.169318 -0.841972 -3.456481 2.987106 -4.719149 -3.134040 -1.278056 -8.049692 2.484922 -30.909263 -0.527948 9.012958 -58.081407 -10.394390 12.234306 9.134904 -19.153075 1.012354 6.028367 -14.300195 -9.434204 28.527347 6.067995 7.204563 53.177753 12.794071 7.251107 -7.773337 7.043080 -20.762932 -4.672631 14.664752 -20.205460 
0.034701 -0.998511 0.991515 179.484761 1.375807 92.863978 3.178178 6.549731 1.746954 -1.358742 6.140719 -4.160517 0.538883 5.927499 -8.526099 0.000000 -0.000000 0.000000 -0.610295 -8.142221 0.386401 0.501724 -19.131525 -2.994864 3.664142 -13.287975 -7.324114 0.000000 -0.000000 0.000000 -1.059067 -0.362422 -6.623413 0.515228 -1.999464 7.393994 0.690499 -1.211627 -1.880203 0.378960 -7.104740 -4.218440 0.510571 -4.389392 4.056365 -30.820486 -0.770142 8.193051 -58.150696 -8.852553 10.609828 7.911259 -20.680646 4.607326 6.375060 -13.112575 -10.588116 27.283120 7.119744 7.855730 54.543336 12.562309 6.821981 -8.902345 7.818231 -18.983433 -5.000698 13.665848 -22.255335 
0.034446 -0.998677 0.991534 179.631937 1.665819 92.715430 3.506812 6.902510 1.801281 -1.323876 5.897838 -4.027534 0.325627 5.766272 -8.509727 0.000000 -0.000000 0.000000 -0.219639 -8.336869 0.485232 0.374007 -18.989937 -2.993152 3.039870 -13.266605 -7.386593 0.000000 -0.000000 0.000000 -0.663817 -0.542347 -6.130998 0.408272 -1.968395 6.889734 0.762133 -1.170048 -1.893334 0.119605 -6.837362 -4.095097 0.585234 -3.738401 4.109756 -30.652545 -0.963204 8.261368 -58.270850 -8.367887 10.480360 7.574506 -21.130373 5.684141 5.723013 -13.375331 -10.945820 27.169003 7.320032 8.075332 54.633933 12.451185 6.553695 -8.903790 7.879382 -18.651433 -5.198793 13.669171 -22.562809 
0.034247 -0.998868 0.991530 179.675529 1.751772 92.691575 3.609790 7.115165 1.808373 -1.270059 5.829210 -4.124852 0.364558 5.006558 -8.676227 0.000000 -0.000000 0.000000 -0.120523 -8.555687 0.472152 0.368491 -19.042076 -2.974245 2.978578 -13.052389 -7.424842 0.000000 -0.000000 0.000000 -0.527875 -0.573265 -6.059515 0.332457 -1.968739 6.869907 0.774516 -1.159468 -1.976641 0.018506 -6.385329 -3.981794 0.647060 -3.264179 3.952735 -30.559700 -1.166751 8.317822 -58.323634 -8.132701 10.474568 7.384855 -21.337541 6.151535 4.988868 -13.265603 -10.559790 27.148928 7.444330 8.211877 54.659007 12.444344 6.382695 -8.958897 7.927196 -18.678449 -4.833464 13.587742 -22.406661 
